<svg id="Capa_1" enable-background="new 0 0 512 512" height="512" viewBox="0 0 512 512" width="512" xmlns="http://www.w3.org/2000/svg"><path d="m217.336 426.974h.137c11.763 0 21.295-9.54 21.295-21.295 0-11.763-9.532-21.303-21.295-21.303-.153 0-.306 0-.459.008h-194.999c-.153-.008-.306-.008-.459-.008-11.763 0-21.295 9.54-21.295 21.303 0 11.755 9.532 21.295 21.295 21.295h.137" fill="#b46e59"/><path d="m212.438 328.767c-61.949-6.006-123.897-6.006-185.846 0-4.807 38.517-6.223 77.035-4.248 115.552 1.438 28.039 23.874 50.356 51.919 51.681 30.168 1.424 60.336 1.424 90.504 0 28.044-1.324 50.481-23.642 51.919-51.68 1.975-38.518.559-77.035-4.248-115.553z" fill="#c18678"/><path d="m26.595 328.761c30.969-3.004 61.947-4.501 92.925-4.501-15.683 0-31.366 1.516-47.05 4.547-2.44 38.889-3.151 77.778-2.153 116.658.656 25.59 10.009 46.458 22.282 51.218-6.109-.166-12.227-.397-18.336-.684-28.039-1.322-50.478-23.64-51.92-51.68-1.967-38.519-.553-77.039 4.252-115.558z" fill="#b46e59"/><path d="m119.515 464.205c-11.44 0-22.001-6.679-26.905-17.016-1.829-3.855-.187-8.463 3.668-10.293s8.463-.187 10.293 3.668c2.36 4.974 7.441 8.188 12.945 8.188s10.585-3.214 12.945-8.188c1.829-3.855 6.436-5.497 10.293-3.668 3.855 1.83 5.497 6.438 3.667 10.293-4.906 10.337-15.467 17.016-26.906 17.016z" fill="#b46e59"/><path d="m217.017 384.384c-43.656 0-110.717-28.268-139.465-41.372-8.674-3.958-13.863-6.529-13.863-6.529s-16.651 42.549-41.674 47.9c-.155-.008-.302-.008-.457-.008-4.538 0-8.744 1.417-12.198 3.841-8.256-59.463-17.526-98.093 3.338-109.679 20.856-11.594 35.153 2.703 35.153 2.703s20.887-11.052 49.697-17.743c34.239-7.961 79.661-9.766 114.489 20.446 36.563 31.723 26.688 73.707 4.98 100.441z" fill="#665e66"/><path d="m77.552 343.013c-8.674-3.958-13.863-6.529-13.863-6.529s-16.651 42.549-41.674 47.9c-.155-.008-.302-.008-.457-.008-4.538 0-8.744 1.417-12.198 3.841-8.256-59.463-17.526-98.093 3.338-109.679 20.856-11.594 35.153 2.703 35.153 2.703s20.887-11.052 49.697-17.743c-34.37 8.342-36.004 58.488-19.996 79.515z" fill="#454045"/><path d="m500.139 386.584-144.639.62-71.824.302c-5.475-49.992-21.367-114.915 37.019-126.485 14.018-2.78 26.642-4.43 37.987-5.204 75.998-5.158 94.903 29.158 94.903 29.158s13.754-12.082 28.709-10.85c5.406.441 10.974 2.633 16.101 7.76 27.045 27.043 1.744 104.699 1.744 104.699z" fill="#aa593d"/><path d="m482.295 274.124c-17.766 12.206-29.391 48.729-34.773 69.547-5.266-21.205 1.169-44.547 6.064-58.697 0 0 13.754-12.081 28.709-10.85z" fill="#934d36"/><path d="m347.492 333.324 8.008 53.879-71.824.302c-5.475-49.992-21.367-114.915 37.019-126.485 14.018-2.78 26.642-4.43 37.987-5.204 0 .008-.008.008-.008.008-29.235 17.983-20.205 50.014-11.182 77.5z" fill="#934d36"/><path d="m490.568 426.974h.137c11.763 0 21.295-9.54 21.295-21.295 0-11.763-9.532-21.303-21.295-21.303-.153 0-.306 0-.459.008h-194.999c-.153-.008-.306-.008-.459-.008-11.763 0-21.295 9.54-21.295 21.303 0 11.755 9.532 21.295 21.295 21.295h.137" fill="#f1b986"/><path d="m490.775 410.67c0 11.214-.287 22.436-.86 33.65-1.433 28.036-23.869 50.356-51.92 51.68-19.609.929-39.227 1.247-58.836.968h-.008c-10.556-.147-21.104-.472-31.66-.968-28.043-1.324-50.479-23.644-51.92-51.68-1.022-19.981-1.131-39.954-.333-59.936h.008c10.935-4.05 17.441-16.643 21.305-30.645 3.965-14.366 17.727-22.219 30.94-20.415 5.15.705 10.223 2.881 14.591 6.707 8.775 7.683 19.718 11.524 30.661 11.524s21.894-3.841 30.669-11.524c5.437-4.763 11.95-6.962 18.363-6.962 11.965 0 23.575 7.667 27.168 20.67 3.857 14.002 10.362 26.595 21.305 30.645.357 8.767.527 17.526.527 26.286z" fill="#f1d0a5"/><path d="m379.152 496.968c-10.556-.147-21.104-.472-31.66-.968-28.043-1.324-50.479-23.644-51.92-51.68-1.022-19.981-1.131-39.954-.333-59.936h.008c10.935-4.05 17.441-16.643 21.305-30.645 3.965-14.366 17.727-22.219 30.94-20.415-10.029 89.551 0 162.66 31.66 163.644z" fill="#f1b986"/><path d="m392.746 456.461c-11.439 0-22-6.679-26.905-17.015-1.83-3.855-.188-8.463 3.667-10.293 3.854-1.827 8.463-.188 10.293 3.668 2.361 4.974 7.443 8.188 12.946 8.188s10.585-3.214 12.946-8.188c1.83-3.856 6.441-5.496 10.293-3.668 3.855 1.83 5.497 6.438 3.667 10.293-4.907 10.335-15.468 17.015-26.907 17.015z" fill="#df6b57"/><g fill="#454045"><path d="m74.172 384.948c-4.919 0-8.92 5.944-8.92 13.251s4.002 13.251 8.92 13.251 8.92-5.944 8.92-13.251c-.001-7.307-4.002-13.251-8.92-13.251z"/><path d="m164.859 384.948c-4.919 0-8.92 5.944-8.92 13.251s4.002 13.251 8.92 13.251 8.92-5.944 8.92-13.251c-.001-7.307-4.002-13.251-8.92-13.251z"/><path d="m347.403 384.948c-4.918 0-8.921 5.944-8.921 13.251s4.002 13.251 8.921 13.251 8.92-5.944 8.92-13.251-4.001-13.251-8.92-13.251z"/><path d="m438.091 384.948c-4.919 0-8.921 5.944-8.921 13.251s4.002 13.251 8.921 13.251 8.92-5.944 8.92-13.251c-.001-7.307-4.002-13.251-8.92-13.251z"/></g><path d="m433.303 14.932h-357.036c-26.28 0-47.584 21.304-47.584 47.584v73.381c0 26.28 21.304 47.583 47.584 47.583h23.503l25.172 40.323 25.172-40.323h209.34l25.172 40.323 25.174-40.323h23.503c26.28 0 47.583-21.304 47.583-47.583v-73.382c0-26.279-21.304-47.583-47.583-47.583z" fill="#e49542"/><circle cx="190.38" cy="103.317" fill="#454045" r="18.499"/><circle cx="254.785" cy="103.317" fill="#454045" r="18.499"/><circle cx="319.19" cy="103.317" fill="#454045" r="18.499"/></svg>